<svg width="193" height="34" viewBox="0 0 193 34" fill="none" xmlns="http://www.w3.org/2000/svg">
<path d="M66 1H69V8.04348L66 23.7826V1Z" fill="#EDF2F4"/>
<path d="M69 33H66V25.9565L69 10.2174V33Z" fill="#E65F5C"/>
<path d="M2.60156 9.68359H9.31641C11.2773 9.68359 12.9805 9.89453 14.4258 10.3164C15.8711 10.7383 17.0664 11.3438 18.0117 12.1328C18.9648 12.9141 19.6719 13.8672 20.1328 14.9922C20.6016 16.1094 20.8359 17.3672 20.8359 18.7656C20.8359 20.0938 20.6055 21.3242 20.1445 22.457C19.6836 23.582 18.9805 24.5586 18.0352 25.3867C17.0898 26.207 15.8945 26.8516 14.4492 27.3203C13.0039 27.7812 11.3008 28.0117 9.33984 28.0117L2.60156 28V9.68359ZM10.2305 24.7891C11.3398 24.7891 12.3125 24.6484 13.1484 24.3672C13.9844 24.0781 14.6797 23.6719 15.2344 23.1484C15.7969 22.625 16.2188 21.9922 16.5 21.25C16.7812 20.5078 16.9219 19.6797 16.9219 18.7656C16.9219 17.8672 16.7812 17.0586 16.5 16.3398C16.2188 15.6133 15.7969 15 15.2344 14.5C14.6797 13.9922 13.9844 13.6016 13.1484 13.3281C12.3125 13.0547 11.3398 12.918 10.2305 12.918H6.31641V24.7891H10.2305ZM23.4727 23.6406C23.4727 22.9766 23.6172 22.3711 23.9062 21.8242C24.1953 21.2773 24.6289 20.8086 25.207 20.418C25.7852 20.0195 26.5039 19.7148 27.3633 19.5039C28.2305 19.2852 29.2383 19.1758 30.3867 19.1758C31.2383 19.1758 32.1328 19.2383 33.0703 19.3633C34.0156 19.4883 34.9883 19.6797 35.9883 19.9375C35.9492 19.5 35.8164 19.0977 35.5898 18.7305C35.3633 18.3555 35.0469 18.0352 34.6406 17.7695C34.2422 17.4961 33.7578 17.2852 33.1875 17.1367C32.625 16.9883 31.9844 16.9141 31.2656 16.9141C30.875 16.9141 30.4453 16.9375 29.9766 16.9844C29.5078 17.0312 29.0234 17.1016 28.5234 17.1953C28.0234 17.2891 27.5273 17.4062 27.0352 17.5469C26.5508 17.6875 26.0977 17.8555 25.6758 18.0508L24.6211 15.2031C25.1445 15.0156 25.7031 14.8438 26.2969 14.6875C26.8984 14.5312 27.5117 14.3984 28.1367 14.2891C28.7617 14.1719 29.3867 14.082 30.0117 14.0195C30.6367 13.957 31.2422 13.9258 31.8281 13.9258C34.4141 13.9258 36.3359 14.5859 37.5938 15.9062C38.8516 17.2266 39.4805 19.25 39.4805 21.9766V28H36.0117V26.6992C35.6523 26.9102 35.2578 27.1094 34.8281 27.2969C34.4062 27.4844 33.9453 27.6484 33.4453 27.7891C32.9453 27.9297 32.4062 28.0391 31.8281 28.1172C31.2578 28.2031 30.6523 28.2461 30.0117 28.2461C28.9336 28.2461 27.9844 28.1289 27.1641 27.8945C26.3516 27.6602 25.6719 27.3359 25.125 26.9219C24.5781 26.5078 24.1641 26.0234 23.8828 25.4688C23.6094 24.9062 23.4727 24.2969 23.4727 23.6406ZM27.1289 23.5234C27.1289 23.75 27.1875 23.9688 27.3047 24.1797C27.4219 24.3828 27.6094 24.5664 27.8672 24.7305C28.125 24.8867 28.4531 25.0156 28.8516 25.1172C29.2578 25.2109 29.7461 25.2578 30.3164 25.2578C30.9258 25.2578 31.5156 25.2031 32.0859 25.0938C32.6562 24.9844 33.1875 24.8398 33.6797 24.6602C34.1719 24.4805 34.6172 24.2734 35.0156 24.0391C35.4141 23.8047 35.7461 23.5625 36.0117 23.3125V22.7031C35.4805 22.5547 34.9531 22.4297 34.4297 22.3281C33.9141 22.2266 33.418 22.1484 32.9414 22.0938C32.4727 22.0312 32.0273 21.9883 31.6055 21.9648C31.1914 21.9414 30.8281 21.9297 30.5156 21.9297C29.8672 21.9297 29.3281 21.9727 28.8984 22.0586C28.4688 22.1445 28.1211 22.2617 27.8555 22.4102C27.5898 22.5508 27.4023 22.7188 27.293 22.9141C27.1836 23.1094 27.1289 23.3125 27.1289 23.5234ZM44.0742 14.1719H47.543V15.3438C48.4648 14.8203 49.3438 14.4531 50.1797 14.2422C51.0234 14.0312 51.8477 13.9258 52.6523 13.9258C53.707 13.9258 54.6836 14.082 55.582 14.3945C56.4805 14.6992 57.2578 15.1562 57.9141 15.7656C58.5703 16.375 59.082 17.1367 59.4492 18.0508C59.8242 18.957 60.0117 20.0078 60.0117 21.2031V28H56.5547V21.7656C56.5547 21.0078 56.4453 20.332 56.2266 19.7383C56.0156 19.1367 55.707 18.6328 55.3008 18.2266C54.9023 17.8125 54.4141 17.5 53.8359 17.2891C53.2656 17.0703 52.625 16.9609 51.9141 16.9609C51.5391 16.9609 51.1523 17 50.7539 17.0781C50.3633 17.1562 49.9766 17.2695 49.5938 17.418C49.2188 17.5586 48.8555 17.7383 48.5039 17.957C48.1523 18.168 47.832 18.4102 47.543 18.6836V28H44.0742V14.1719Z" fill="#EDF2F4"/>
<path d="M81.8359 17.0547H74.7461V14.1719H88.2695L79.7383 25.1172H87.8008V28H73.3633L81.8359 17.0547ZM97.8203 17.0547H90.7305V14.1719H104.254L95.7227 25.1172H103.785V28H89.3477L97.8203 17.0547ZM107.137 14.1602H110.594V20.9102C110.594 21.5508 110.664 22.1367 110.805 22.668C110.945 23.1914 111.184 23.6406 111.52 24.0156C111.863 24.3906 112.316 24.6836 112.879 24.8945C113.449 25.0977 114.156 25.1992 115 25.1992C115.398 25.1992 115.801 25.1562 116.207 25.0703C116.621 24.9844 117.016 24.8672 117.391 24.7188C117.766 24.5625 118.113 24.3789 118.434 24.168C118.762 23.957 119.043 23.7266 119.277 23.4766V14.1602H122.746V28H119.277V26.8164C118.426 27.3242 117.57 27.6875 116.711 27.9062C115.852 28.125 115.035 28.2344 114.262 28.2344C112.996 28.2344 111.91 28.082 111.004 27.7773C110.105 27.4727 109.367 27.0312 108.789 26.4531C108.219 25.8672 107.801 25.1523 107.535 24.3086C107.27 23.457 107.137 22.4883 107.137 21.4023V14.1602ZM127.246 8.55859H130.715V28H127.246V8.55859ZM135.168 8.57031H138.637V15.2266C139.363 14.8281 140.172 14.5117 141.062 14.2773C141.961 14.043 142.902 13.9258 143.887 13.9258C145.027 13.9258 146.051 14.0938 146.957 14.4297C147.871 14.7656 148.645 15.25 149.277 15.8828C149.91 16.5078 150.395 17.2695 150.73 18.168C151.074 19.0664 151.246 20.0781 151.246 21.2031V28H147.789V21.3438C147.789 20.6875 147.684 20.0898 147.473 19.5508C147.262 19.0039 146.953 18.5352 146.547 18.1445C146.141 17.7539 145.645 17.4531 145.059 17.2422C144.48 17.0234 143.824 16.9141 143.09 16.9141C142.207 16.9141 141.387 17.0547 140.629 17.3359C139.871 17.6172 139.207 17.9727 138.637 18.4023V28H135.168V8.57031ZM154.48 23.6406C154.48 22.9766 154.625 22.3711 154.914 21.8242C155.203 21.2773 155.637 20.8086 156.215 20.418C156.793 20.0195 157.512 19.7148 158.371 19.5039C159.238 19.2852 160.246 19.1758 161.395 19.1758C162.246 19.1758 163.141 19.2383 164.078 19.3633C165.023 19.4883 165.996 19.6797 166.996 19.9375C166.957 19.5 166.824 19.0977 166.598 18.7305C166.371 18.3555 166.055 18.0352 165.648 17.7695C165.25 17.4961 164.766 17.2852 164.195 17.1367C163.633 16.9883 162.992 16.9141 162.273 16.9141C161.883 16.9141 161.453 16.9375 160.984 16.9844C160.516 17.0312 160.031 17.1016 159.531 17.1953C159.031 17.2891 158.535 17.4062 158.043 17.5469C157.559 17.6875 157.105 17.8555 156.684 18.0508L155.629 15.2031C156.152 15.0156 156.711 14.8438 157.305 14.6875C157.906 14.5312 158.52 14.3984 159.145 14.2891C159.77 14.1719 160.395 14.082 161.02 14.0195C161.645 13.957 162.25 13.9258 162.836 13.9258C165.422 13.9258 167.344 14.5859 168.602 15.9062C169.859 17.2266 170.488 19.25 170.488 21.9766V28H167.02V26.6992C166.66 26.9102 166.266 27.1094 165.836 27.2969C165.414 27.4844 164.953 27.6484 164.453 27.7891C163.953 27.9297 163.414 28.0391 162.836 28.1172C162.266 28.2031 161.66 28.2461 161.02 28.2461C159.941 28.2461 158.992 28.1289 158.172 27.8945C157.359 27.6602 156.68 27.3359 156.133 26.9219C155.586 26.5078 155.172 26.0234 154.891 25.4688C154.617 24.9062 154.48 24.2969 154.48 23.6406ZM158.137 23.5234C158.137 23.75 158.195 23.9688 158.312 24.1797C158.43 24.3828 158.617 24.5664 158.875 24.7305C159.133 24.8867 159.461 25.0156 159.859 25.1172C160.266 25.2109 160.754 25.2578 161.324 25.2578C161.934 25.2578 162.523 25.2031 163.094 25.0938C163.664 24.9844 164.195 24.8398 164.688 24.6602C165.18 24.4805 165.625 24.2734 166.023 24.0391C166.422 23.8047 166.754 23.5625 167.02 23.3125V22.7031C166.488 22.5547 165.961 22.4297 165.438 22.3281C164.922 22.2266 164.426 22.1484 163.949 22.0938C163.48 22.0312 163.035 21.9883 162.613 21.9648C162.199 21.9414 161.836 21.9297 161.523 21.9297C160.875 21.9297 160.336 21.9727 159.906 22.0586C159.477 22.1445 159.129 22.2617 158.863 22.4102C158.598 22.5508 158.41 22.7188 158.301 22.9141C158.191 23.1094 158.137 23.3125 158.137 23.5234ZM174.25 21.1445C174.25 20.043 174.457 19.0508 174.871 18.168C175.285 17.2773 175.855 16.5195 176.582 15.8945C177.316 15.2617 178.184 14.7773 179.184 14.4414C180.191 14.0977 181.281 13.9258 182.453 13.9258C183.461 13.9258 184.387 14.043 185.23 14.2773C186.074 14.5039 186.805 14.8008 187.422 15.168V14.1719H190.891V33.6484H187.422V26.6992C187.117 26.9102 186.77 27.1094 186.379 27.2969C185.988 27.4844 185.57 27.6484 185.125 27.7891C184.68 27.9297 184.211 28.0391 183.719 28.1172C183.234 28.2031 182.742 28.2461 182.242 28.2461C181.07 28.2461 179.992 28.0742 179.008 27.7305C178.031 27.3867 177.191 26.9023 176.488 26.2773C175.785 25.6523 175.234 24.9062 174.836 24.0391C174.445 23.1641 174.25 22.1992 174.25 21.1445ZM177.895 21.1445C177.895 21.6992 178.004 22.2227 178.223 22.7148C178.449 23.207 178.77 23.6406 179.184 24.0156C179.605 24.3828 180.109 24.6758 180.695 24.8945C181.289 25.1055 181.953 25.2109 182.688 25.2109C183.156 25.2109 183.613 25.168 184.059 25.082C184.504 24.9883 184.926 24.8594 185.324 24.6953C185.73 24.5312 186.109 24.332 186.461 24.0977C186.82 23.8633 187.141 23.6016 187.422 23.3125V18.5195C186.711 17.957 185.977 17.5586 185.219 17.3242C184.469 17.082 183.699 16.9609 182.91 16.9609C182.113 16.9609 181.402 17.0703 180.777 17.2891C180.16 17.5 179.637 17.793 179.207 18.168C178.785 18.543 178.461 18.9844 178.234 19.4922C178.008 20 177.895 20.5508 177.895 21.1445Z" fill="#E65F5C"/>
</svg>
