<svg xmlns="http://www.w3.org/2000/svg" version="1.1" xmlns:xlink="http://www.w3.org/1999/xlink" xmlns:svgjs="http://svgjs.com/svgjs" width="1920" height="1080" preserveAspectRatio="none" viewBox="0 0 1920 1080"><g mask="url(&quot;#SvgjsMask1050&quot;)" fill="none"><rect width="1920" height="1080" x="0" y="0" fill="url(#SvgjsLinearGradient1051)"></rect><path d="M1920 0L1597.98 0L1920 216.91z" fill="rgba(255, 255, 255, .1)"></path><path d="M1597.98 0L1920 216.91L1920 451.76L1012.95 0z" fill="rgba(255, 255, 255, .075)"></path><path d="M1012.95 0L1920 451.76L1920 505.41999999999996L587.09 0z" fill="rgba(255, 255, 255, .05)"></path><path d="M587.0900000000001 0L1920 505.41999999999996L1920 706.1099999999999L331.14000000000016 0z" fill="rgba(255, 255, 255, .025)"></path><path d="M0 1080L46.32 1080L0 979.03z" fill="rgba(0, 0, 0, .1)"></path><path d="M0 979.03L46.32 1080L440.82 1080L0 742.74z" fill="rgba(0, 0, 0, .075)"></path><path d="M0 742.74L440.82 1080L608.86 1080L0 657.54z" fill="rgba(0, 0, 0, .05)"></path><path d="M0 657.54L608.86 1080L938.62 1080L0 315.59z" fill="rgba(0, 0, 0, .025)"></path></g><defs><mask id="SvgjsMask1050"><rect width="1920" height="1080" fill="#ffffff"></rect></mask><linearGradient x1="10.94%" y1="-19.44%" x2="89.06%" y2="119.44%" gradientUnits="userSpaceOnUse" id="SvgjsLinearGradient1051"><stop stop-color="rgba(230, 95, 92, 1)" offset="0"></stop><stop stop-color="rgba(230, 95, 92, 1)" offset="1"></stop></linearGradient></defs></svg>