<svg xmlns="http://www.w3.org/2000/svg" version="1.1" xmlns:xlink="http://www.w3.org/1999/xlink" xmlns:svgjs="http://svgjs.com/svgjs" width="1920" height="1080" preserveAspectRatio="none" viewBox="0 0 1920 1080"><g mask="url(&quot;#SvgjsMask1227&quot;)" fill="none"><rect width="1920" height="1080" x="0" y="0" fill="rgba(46, 46, 46, 1)"></rect><path d="M -1215.696779784468,292 C -1087.7,343.8 -831.7,550 -575.6967797844679,551 C -319.7,552 -191.7,247.8 64.30322021553206,297 C 320.3,346.2 448.3,787 704.3032202155321,797 C 960.3,807 1101.16,389.4 1344.303220215532,347 C 1587.44,304.6 1804.86,537.4 1920,585" stroke="rgba(78, 78, 78, 1)" stroke-width="2"></path><path d="M -7.541708425328125,463 C 120.46,505.8 376.46,699 632.4582915746719,677 C 888.46,655 1016.46,347.4 1272.4582915746719,353 C 1528.46,358.6 1656.46,688.4 1912.4582915746719,705 C 2168.46,721.6 2550.95,465.6 2552.458291574672,436 C 2553.97,406.4 2046.49,532.8 1920,557" stroke="rgba(78, 78, 78, 1)" stroke-width="2"></path><path d="M -1082.148810776495,354 C -954.15,436.6 -698.15,753 -442.1488107764951,767 C -186.15,781 -58.15,416.6 197.8511892235049,424 C 453.85,431.4 581.85,812 837.8511892235049,804 C 1093.85,796 1261.42,398 1477.851189223505,384 C 1694.28,370 1831.57,664 1920,734" stroke="rgba(78, 78, 78, 1)" stroke-width="2"></path></g><defs><mask id="SvgjsMask1227"><rect width="1920" height="1080" fill="#ffffff"></rect></mask></defs></svg>